<svg role="img" viewBox="0 0 48 48" xmlns="http://www.w3.org/2000/svg">
  <title>Microsoft Entra</title>
  <path fill="#0078d4" d="M24 3 6 11v11c0 10.7 7.6 19 18 23 10.4-4 18-12.3 18-23V11L24 3Z"/>
  <path fill="#50e6ff" d="M24 8.4 12 13.8V22c0 7.2 4.8 13.2 12 16.4 7.2-3.2 12-9.2 12-16.4v-8.2L24 8.4Z"/>
  <path fill="#243a5e" d="M18 22a6 6 0 1 1 9 5.2V34h-6v-6.8A6 6 0 0 1 18 22Z"/>
  <path fill="#ffffff" fill-opacity=".88" d="M24 13.5A8.5 8.5 0 0 0 15.5 22c0 3 1.6 5.7 4 7.2V36h9v-6.8a8.5 8.5 0 0 0-4.5-15.7Zm0 3a5.5 5.5 0 0 1 2.2 10.5l-.7.3V33h-3v-5.7l-.7-.3A5.5 5.5 0 0 1 24 16.5Z"/>
</svg>
